{"title":"I Spit on Your Grave 2 2013 DVDrip English Klam","uid":10573176,"size":1369048718,"categoryP":"video","categoryS":"movies","magnet":"?xt=urn:btih:57afc44929a59e633a0a51ded60161a7ccb1b6f8&amp;dn=I+Spit+on+Your+Grave+2+2013+DVDrip+English+Klam&amp;tr=udp%3A%2F%2Ftracker.openbittorrent.com%3A80&amp;tr=udp%3A%2F%2Fopen.demonii.com%3A1337&amp;tr=udp%3A%2F%2Ftracker.coppersurfer.tk%3A6969&amp;tr=udp%3A%2F%2Fexodus.desync.com%3A6969","seeders":3,"leechers":2,"uploader":"Klambake","files":-1,"time":1405608432,"description":"With: Jemma Dallender, Joe Absolom and Yavor Baharov\n\nDe mooie Katie is net verhuisd naar New York waar ze, net als vele andere knappe vrouwen, het probeert te maken als model. Maar wat begint als een onschuldige en simpele fotoshoot verandert al snel in een verontrustende situatie. Verkracht, gemarteld en ontvoerd naar een vreemd land, wordt Jessica levend begraven en voor dood achtergelaten. Tegen alle verwachtingen in weet ze echter te ontsnappen en nu zint ze op wraak.\n\nWhen Katie innocently accepts an offer to have new photos taken for her portfolio, the experience quickly turns into a nightmare of rape, torture and kidnapping. Now, she will have to find the strength to exact her brutal revenge.\n &lt;a href=&quot;\nhttp://www.imdb.com/title/tt2537176&quot; rel=&quot;nofollow&quot; target=&quot;_NEW&quot;&gt;\nhttp://www.imdb.com/title/tt2537176&lt;/a&gt;\t\n\n--------------------- Dutch Friends 4ever ---------------------\n---------------------------------------------------------------\n- Bezoek ook eens mijn vrienden op: &lt;a href=&quot; http://www.Film-Test.nl&quot; rel=&quot;nofollow&quot; target=&quot;_NEW&quot;&gt; http://www.Film-Test.nl&lt;/a&gt; --\n----- voor mijn Nederlandse Sync. ondertitels ---- en meer ----\n------- http://www.Film-Test.nl ---- Over Films en meer -------\n---------------------------------------------------------------\n &lt;a href=&quot;\nhttp://i.imgur.com/l5Ffd81.jpg&quot; rel=&quot;nofollow&quot; target=&quot;_NEW&quot;&gt;\nhttp://i.imgur.com/l5Ffd81.jpg&lt;/a&gt; &lt;a href=&quot;\nhttp://i.imgur.com/whaXV6d.jpg&quot; rel=&quot;nofollow&quot; target=&quot;_NEW&quot;&gt;\nhttp://i.imgur.com/whaXV6d.jpg&lt;/a&gt; &lt;a href=&quot;\nhttp://i.imgur.com/3MOYUMR.jpg&quot; rel=&quot;nofollow&quot; target=&quot;_NEW&quot;&gt;\nhttp://i.imgur.com/3MOYUMR.jpg&lt;/a&gt;\n\nGeneral:\n\nComplete name                            : I Spit on Your Grave 2I Spit on Your Grave 2.avi\nFormat                                   : AVI\nFormat/Info                              : Audio Video Interleave\nFile size                                : 1.27 GiB\nDuration                                 : 1h 46mn\nOverall bit rate                         : 1 719 Kbps\n\nVideo:\n\nFormat                                   : MPEG-4 Visual\nFormat profile                           : Simple@L3\nFormat settings, BVOP                    : No\nFormat settings, QPel                    : No\nFormat settings, GMC                     : No warppoints\nFormat settings, Matrix                  : Default (H.263)\nCodec ID                                 : XVID\nCodec ID/Hint                            : XviD\nDuration                                 : 1h 46mn\nBit rate                                 : 1 260 Kbps\nWidth                                    : 720 pixels\nHeight                                   : 304 pixels\nDisplay aspect ratio                     : 2.35:1\nFrame rate                               : 23.976 fps\nColor space                              : YUV\nChroma subsampling                       : 4:2:0\nBit depth                                : 8 bits\nScan type                                : Progressive\nCompression mode                         : Lossy\nBits/(Pixel*Frame)                       : 0.240\nStream size                              : 957 MiB (73%)\nWriting library                          : XviD 1.1.2 (UTC 2006-11-01)\n\nAudio:\n\nFormat                                   : AC-3\nFormat/Info                              : Audio Coding 3\nMode extension                           : CM (complete main)\nFormat settings, Endianness              : Big\nCodec ID                                 : 2000\nDuration                                 : 1h 46mn\nSource duration                          : 1h 46mn\nBit rate mode                            : Constant\nBit rate                                 : 448 Kbps\nChannel(s)                               : 6 channels\nChannel positions                        : Front: L C R, Side: L R, LFE\nSampling rate                            : 48.0 KHz\nBit depth                                : 16 bits\nCompression mode                         : Lossy\nStream size                              : 340 MiB (26%)\nAlignment                                : Aligned on interleaves\nInterleave, duration                     : 32 ms (0.77 video frame)\nInterleave, preload duration             : 256 ms\n\n","torrent":{"xt":"urn:btih:57afc44929a59e633a0a51ded60161a7ccb1b6f8","amp;dn":"I+Spit+on+Your+Grave+2+2013+DVDrip+English+Klam","amp;tr":["udp%3A%2F%2Ftracker.openbittorrent.com%3A80","udp%3A%2F%2Fopen.demonii.com%3A1337","udp%3A%2F%2Ftracker.coppersurfer.tk%3A6969","udp%3A%2F%2Fexodus.desync.com%3A6969"],"infoHash":"57afc44929a59e633a0a51ded60161a7ccb1b6f8","infoHashBuffer":{"type":"Buffer","data":[87,175,196,73,41,165,158,99,58,10,81,222,214,1,97,167,204,177,182,248]},"announce":[],"urlList":[]}}